<svg id="Layer_1" data-name="Layer 1" xmlns="http://www.w3.org/2000/svg" xmlns:xlink="http://www.w3.org/1999/xlink" viewBox="0 0 480 480"><defs><style>.cls-1{fill:none;}.cls-2{clip-path:url(#clip-path);}</style><clipPath id="clip-path"><rect class="cls-1" x="77.8" width="324.4" height="421.72"/></clipPath></defs><path d="M129.83,440.08h0l-2.07,1.23-.22-.71,2.44-1.48h.77v12.66h-.88Z"/><path d="M135,448.68a4,4,0,0,1,2.51-3.61V445a3.27,3.27,0,0,1-2-2.89,3.16,3.16,0,0,1,3.29-3.2,2.92,2.92,0,0,1,3.07,3,3.37,3.37,0,0,1-2.08,3.07v.07a3.77,3.77,0,0,1,2.5,3.4,3.52,3.52,0,0,1-3.65,3.52A3.38,3.38,0,0,1,135,448.68Zm6.34-.1c0-1.74-1.12-2.55-2.9-3.21a3.39,3.39,0,0,0-2.51,3.11,2.71,2.71,0,0,0,5.41.1Zm-5-6.6c0,1.53,1,2.26,2.47,2.73A3,3,0,0,0,140.9,442a2.14,2.14,0,0,0-2.25-2.33A2.2,2.2,0,0,0,136.35,442Z"/><path d="M145.64,439.79v2.64H148v.74h-2.4v6.16c0,1.23.39,1.85,1.26,1.85a2.89,2.89,0,0,0,.91-.12l.11.7a2.88,2.88,0,0,1-1.16.2,1.85,1.85,0,0,1-1.5-.63,3.44,3.44,0,0,1-.52-2.2v-6h-1.45v-.74h1.45v-2.32Z"/><path d="M149.9,438.06h.89v5.84h0a3.21,3.21,0,0,1,1.13-1.19,3.05,3.05,0,0,1,1.69-.47c.87,0,2.89.49,2.89,3.63v5.91h-.9V446c0-1.57-.56-3-2.25-3a2.67,2.67,0,0,0-2.49,2,2.78,2.78,0,0,0-.11.85v5.87h-.89Z"/><path d="M164.19,438.65v13.13h-.89V438.65Z"/><path d="M167.34,444.64c0-.94,0-1.5-.08-2.21h.83l.06,1.53h0a3.12,3.12,0,0,1,2.87-1.72c.92,0,2.92.51,2.92,3.68v5.86h-.9v-5.71c0-1.59-.53-3.06-2.27-3.06a2.64,2.64,0,0,0-2.48,2.09,4,4,0,0,0-.1.82v5.86h-.89Z"/><path d="M178,439.79v2.64h2.4v.74H178v6.16c0,1.23.39,1.85,1.26,1.85a2.89,2.89,0,0,0,.91-.12l.11.7a2.88,2.88,0,0,1-1.16.2,1.84,1.84,0,0,1-1.5-.63,3.44,3.44,0,0,1-.52-2.2v-6h-1.45v-.74h1.45v-2.32Z"/><path d="M182.31,446.94c0,3.21,1.52,4.23,3.19,4.23a4.48,4.48,0,0,0,2.24-.48l.22.71a5.25,5.25,0,0,1-2.59.56c-2.49,0-4-1.95-4-4.71,0-3.08,1.57-5,3.77-5,2.7,0,3.26,2.69,3.26,4.13a4.88,4.88,0,0,1,0,.57Zm5.18-.72c0-1.61-.64-3.22-2.43-3.22s-2.57,1.76-2.71,3.22Z"/><path d="M190.61,445c0-.86,0-1.8-.08-2.61h.84l0,1.79h.05a2.69,2.69,0,0,1,2.46-2,1.66,1.66,0,0,1,.32,0v.89a2,2,0,0,0-.36,0c-1.26,0-2.11,1.14-2.32,2.53a6,6,0,0,0-.06.86v5.25h-.89Z"/><path d="M196,444.64c0-.94,0-1.5-.08-2.21h.83l.06,1.53h0a3.12,3.12,0,0,1,2.87-1.72c.92,0,2.92.51,2.92,3.68v5.86h-.9v-5.71c0-1.59-.53-3.06-2.27-3.06A2.62,2.62,0,0,0,197,445.1a3.39,3.39,0,0,0-.11.82v5.86H196Z"/><path d="M210.05,451.78l-.12-1.25h-.05a3,3,0,0,1-2.61,1.44,2.44,2.44,0,0,1-2.54-2.57c0-2.18,1.83-3.41,5.13-3.39v-.28c0-1.12-.2-2.73-2.16-2.72a3.5,3.5,0,0,0-2,.62l-.28-.67a4.48,4.48,0,0,1,2.44-.72c2.27,0,2.93,1.63,2.93,3.47v3.88a15.65,15.65,0,0,0,.12,2.19Zm-.19-5c-1.64,0-4.19.2-4.19,2.51a1.69,1.69,0,0,0,1.7,1.93,2.42,2.42,0,0,0,2.41-1.84,2.05,2.05,0,0,0,.08-.57Z"/><path d="M214.72,439.79v2.64h2.39v.74h-2.39v6.16c0,1.23.38,1.85,1.26,1.85a2.93,2.93,0,0,0,.91-.12l.11.7a2.92,2.92,0,0,1-1.16.2,1.83,1.83,0,0,1-1.5-.63,3.44,3.44,0,0,1-.52-2.2v-6h-1.46v-.74h1.46v-2.32Z"/><path d="M220.14,439.84a.72.72,0,0,1-.75.78.71.71,0,0,1-.68-.78.74.74,0,0,1,.71-.78A.72.72,0,0,1,220.14,439.84ZM219,451.78v-9.35h.9v9.35Z"/><path d="M229.88,447c0,3.48-2.09,4.93-4,4.93-2.09,0-3.81-1.73-3.81-4.81,0-3.28,1.88-4.92,3.94-4.92C228.24,442.24,229.88,444,229.88,447Zm-6.88.08c0,2.1,1.13,4.09,3,4.09s3-2,3-4.14c0-1.65-.76-4.07-3-4.07S223,445.26,223,447.12Z"/><path d="M232.07,444.64c0-.94,0-1.5-.08-2.21h.84l0,1.53h0a3.13,3.13,0,0,1,2.87-1.72c.93,0,2.92.51,2.92,3.68v5.86h-.89v-5.71c0-1.59-.53-3.06-2.28-3.06a2.63,2.63,0,0,0-2.47,2.09,3.41,3.41,0,0,0-.1.82v5.86h-.9Z"/><path d="M246.14,451.78l-.12-1.25H246a3,3,0,0,1-2.61,1.44,2.45,2.45,0,0,1-2.55-2.57c0-2.18,1.84-3.41,5.14-3.39v-.28c0-1.12-.2-2.73-2.16-2.72a3.53,3.53,0,0,0-2,.62l-.27-.67a4.45,4.45,0,0,1,2.43-.72c2.27,0,2.94,1.63,2.94,3.47v3.88a15.65,15.65,0,0,0,.12,2.19Zm-.19-5c-1.64,0-4.19.2-4.19,2.51a1.69,1.69,0,0,0,1.69,1.93,2.44,2.44,0,0,0,2.42-1.84,2.05,2.05,0,0,0,.08-.57Z"/><path d="M249.65,438.06h.9v13.72h-.9Z"/><path d="M265.28,451.38a7,7,0,0,1-3,.58c-2.84,0-5.56-1.92-5.56-6.65,0-4.32,2.49-6.83,5.93-6.83a5.73,5.73,0,0,1,2.59.49l-.29.77a5.23,5.23,0,0,0-2.33-.48c-2.89,0-5,2-5,6s1.92,5.89,4.87,5.89a5.66,5.66,0,0,0,2.51-.53Z"/><path d="M274.16,447c0,3.48-2.09,4.93-4,4.93-2.09,0-3.81-1.73-3.81-4.81,0-3.28,1.88-4.92,3.94-4.92S274.16,444,274.16,447Zm-6.88.08c0,2.1,1.13,4.09,3,4.09s3-2,3-4.14c0-1.65-.76-4.07-3-4.07S267.28,445.26,267.28,447.12Z"/><path d="M276.35,444.64c0-.94,0-1.5-.08-2.21h.84l.06,1.53h0a3.14,3.14,0,0,1,2.88-1.72c.92,0,2.92.51,2.92,3.68v5.86h-.9v-5.71c0-1.59-.53-3.06-2.28-3.06a2.63,2.63,0,0,0-2.47,2.09,3.41,3.41,0,0,0-.1.82v5.86h-.9Z"/><path d="M285.94,451.78v-8.61h-1.28v-.74h1.28v-.57a4.54,4.54,0,0,1,.95-3.2,2.67,2.67,0,0,1,1.94-.8,2.57,2.57,0,0,1,1.27.3l-.28.71a2.23,2.23,0,0,0-1.08-.24c-1.58,0-1.9,1.54-1.9,3.22v.58h2.28v.74h-2.28v8.61Z"/><path d="M290.52,446.94c0,3.21,1.53,4.23,3.2,4.23a4.48,4.48,0,0,0,2.24-.48l.22.71a5.25,5.25,0,0,1-2.59.56c-2.49,0-4-1.95-4-4.71,0-3.08,1.57-5,3.77-5,2.7,0,3.26,2.69,3.26,4.13a4.88,4.88,0,0,1,0,.57Zm5.19-.72c0-1.61-.64-3.22-2.43-3.22s-2.57,1.76-2.72,3.22Z"/><path d="M298.82,445c0-.86,0-1.8-.07-2.61h.83l0,1.79h.05a2.71,2.71,0,0,1,2.47-2,1.66,1.66,0,0,1,.32,0v.89a2,2,0,0,0-.36,0c-1.26,0-2.12,1.14-2.32,2.53a6,6,0,0,0-.06.86v5.25h-.9Z"/><path d="M304.07,446.94c0,3.21,1.53,4.23,3.19,4.23a4.42,4.42,0,0,0,2.24-.48l.23.71a5.28,5.28,0,0,1-2.59.56c-2.5,0-4-1.95-4-4.71,0-3.08,1.57-5,3.78-5,2.7,0,3.25,2.69,3.25,4.13a4.88,4.88,0,0,1,0,.57Zm5.19-.72c0-1.61-.64-3.22-2.44-3.22s-2.56,1.76-2.71,3.22Z"/><path d="M312.38,444.64c0-.94,0-1.5-.08-2.21h.83l.06,1.53h0a3.12,3.12,0,0,1,2.87-1.72c.92,0,2.92.51,2.92,3.68v5.86h-.9v-5.71c0-1.59-.53-3.06-2.27-3.06a2.63,2.63,0,0,0-2.47,2.09,3.41,3.41,0,0,0-.1.82v5.86h-.9Z"/><path d="M327.62,451.41a5,5,0,0,1-2.37.55c-2.43,0-4.07-1.87-4.07-4.77s1.76-4.95,4.37-4.95a4.1,4.1,0,0,1,2.1.5l-.31.76a3.73,3.73,0,0,0-1.9-.47c-2.25,0-3.35,2-3.35,4.12,0,2.46,1.36,4,3.31,4a4.46,4.46,0,0,0,2-.46Z"/><path d="M329.76,446.94c0,3.21,1.53,4.23,3.2,4.23a4.48,4.48,0,0,0,2.24-.48l.22.71a5.25,5.25,0,0,1-2.59.56c-2.49,0-4-1.95-4-4.71,0-3.08,1.57-5,3.77-5,2.7,0,3.26,2.69,3.26,4.13a4.88,4.88,0,0,1,0,.57Zm5.19-.72c0-1.61-.64-3.22-2.44-3.22s-2.56,1.76-2.71,3.22Z"/><path d="M349.07,447c0,3.48-2.09,4.93-4,4.93-2.09,0-3.81-1.73-3.81-4.81,0-3.28,1.89-4.92,4-4.92S349.07,444,349.07,447Zm-6.87.08c0,2.1,1.13,4.09,3,4.09s3-2,3-4.14c0-1.65-.76-4.07-3-4.07S342.2,445.26,342.2,447.12Z"/><path d="M351.38,451.78v-8.61H350.1v-.74h1.28v-.57a4.58,4.58,0,0,1,.94-3.2,2.7,2.7,0,0,1,1.95-.8,2.57,2.57,0,0,1,1.27.3l-.28.71a2.26,2.26,0,0,0-1.08-.24c-1.59,0-1.9,1.54-1.9,3.22v.58h2.28v.74h-2.28v8.61Z"/><path d="M106.75,470.57l-1.45,4.56h-.91L108.64,462h.87l4.25,13.12h-.93l-1.47-4.56Zm4.35-.77-1.37-4.18c-.29-.94-.47-1.68-.65-2.51H109c-.18.85-.38,1.62-.65,2.49L107,469.8Z"/><path d="M115.2,473.94a3.6,3.6,0,0,0,1.9.6,1.75,1.75,0,0,0,2-1.75c0-1-.51-1.55-1.76-2.13s-2.22-1.43-2.22-2.59a2.51,2.51,0,0,1,2.69-2.48,3.28,3.28,0,0,1,1.91.57l-.37.73a2.72,2.72,0,0,0-1.65-.53,1.56,1.56,0,0,0-1.69,1.57c0,.91.53,1.33,1.71,1.9,1.33.62,2.28,1.38,2.28,2.8a2.66,2.66,0,0,1-3,2.68,4,4,0,0,1-2.17-.61Z"/><path d="M123.4,463.2a.71.71,0,0,1-.74.78.72.72,0,0,1-.69-.78.74.74,0,0,1,.72-.78A.71.71,0,0,1,123.4,463.2Zm-1.16,11.93v-9.34h.9v9.34Z"/><path d="M130.62,475.13l-.12-1.24h-.05a3,3,0,0,1-2.61,1.44,2.44,2.44,0,0,1-2.54-2.57c0-2.19,1.83-3.41,5.13-3.39v-.28c0-1.13-.2-2.74-2.16-2.73a3.63,3.63,0,0,0-2,.62l-.27-.66a4.39,4.39,0,0,1,2.44-.73c2.26,0,2.93,1.64,2.93,3.48V473a15.5,15.5,0,0,0,.12,2.18Zm-.19-5c-1.64,0-4.19.19-4.19,2.51a1.7,1.7,0,0,0,1.7,1.93,2.43,2.43,0,0,0,2.41-1.84,2.12,2.12,0,0,0,.08-.58Z"/><path d="M134.13,468c0-.94,0-1.5-.08-2.21h.83l.06,1.53h0a3.12,3.12,0,0,1,2.87-1.73c.92,0,2.92.52,2.92,3.68v5.86h-.89v-5.7c0-1.59-.54-3.07-2.28-3.07a2.64,2.64,0,0,0-2.47,2.09,3.56,3.56,0,0,0-.1.83v5.85h-.9Z"/><path d="M149,470.57l-1.45,4.56h-.91L150.89,462h.87L156,475.13h-.93l-1.47-4.56Zm4.36-.77L152,465.62c-.3-.94-.47-1.68-.66-2.51h-.06c-.17.85-.38,1.62-.64,2.49l-1.37,4.2Z"/><path d="M163.48,474.77a5.13,5.13,0,0,1-2.36.54c-2.44,0-4.08-1.87-4.08-4.77s1.76-5,4.37-5a4.09,4.09,0,0,1,2.1.51l-.31.76a3.7,3.7,0,0,0-1.89-.48c-2.26,0-3.35,2-3.35,4.13,0,2.46,1.35,4,3.3,4a4.51,4.51,0,0,0,2-.46Z"/><path d="M170,475.13l-.12-1.24h0a3,3,0,0,1-2.62,1.44,2.44,2.44,0,0,1-2.54-2.57c0-2.19,1.84-3.41,5.13-3.39v-.28c0-1.13-.2-2.74-2.15-2.73a3.58,3.58,0,0,0-2,.62l-.28-.66a4.41,4.41,0,0,1,2.44-.73c2.27,0,2.93,1.64,2.93,3.48V473a15.5,15.5,0,0,0,.12,2.18Zm-.19-5c-1.64,0-4.18.19-4.18,2.51a1.69,1.69,0,0,0,1.69,1.93,2.43,2.43,0,0,0,2.41-1.84,2.12,2.12,0,0,0,.08-.58Z"/><path d="M180.23,461.42V473c0,.62,0,1.53.08,2.09h-.8l-.07-1.61h-.06a3.1,3.1,0,0,1-2.92,1.81c-2,0-3.6-1.77-3.6-4.74,0-3.18,1.74-5,3.76-5a2.86,2.86,0,0,1,2.67,1.52h0v-5.69Zm-.9,8a4.22,4.22,0,0,0-.07-.79,2.71,2.71,0,0,0-2.57-2.29c-1.86,0-2.91,1.84-2.91,4.16,0,2.11.89,4.06,2.84,4.06a2.75,2.75,0,0,0,2.63-2.34,2.82,2.82,0,0,0,.08-.73Z"/><path d="M183.32,470.29c0,3.22,1.53,4.24,3.19,4.24a4.53,4.53,0,0,0,2.24-.48l.23.7a5.28,5.28,0,0,1-2.59.56c-2.5,0-4-1.95-4-4.71,0-3.07,1.57-5,3.78-5,2.69,0,3.25,2.7,3.25,4.14a4.62,4.62,0,0,1,0,.56Zm5.18-.72c0-1.6-.63-3.22-2.43-3.22s-2.56,1.76-2.71,3.22Z"/><path d="M191.63,468c0-.94,0-1.5-.08-2.21h.83l.06,1.51h0a2.91,2.91,0,0,1,2.73-1.71,2.56,2.56,0,0,1,2.45,1.89h0a3.43,3.43,0,0,1,.93-1.23,2.89,2.89,0,0,1,2-.66c.94,0,2.78.56,2.78,3.78v5.76h-.9v-5.61c0-1.87-.63-3.16-2.18-3.16a2.45,2.45,0,0,0-2.21,1.83,3.37,3.37,0,0,0-.13.93v6H197v-6c0-1.55-.64-2.79-2.09-2.79a2.56,2.56,0,0,0-2.31,2.06,3.62,3.62,0,0,0-.11.89v5.82h-.9Z"/><path d="M205.77,465.79l2.15,6c.24.71.45,1.45.62,2.06h0c.17-.58.4-1.33.65-2.1l2-5.94h.94l-2.34,6.45c-1,2.85-1.75,4.83-3,6a5.35,5.35,0,0,1-1.56,1.1l-.34-.76a4.92,4.92,0,0,0,1.56-1.15,7.63,7.63,0,0,0,1.35-2.21,1.31,1.31,0,0,0,.11-.43,1,1,0,0,0-.09-.4l-3.09-8.64Z"/><path d="M224.85,470.4c0,3.48-2.08,4.93-4,4.93-2.09,0-3.81-1.73-3.81-4.82,0-3.27,1.88-4.92,3.94-4.92C223.22,465.59,224.85,467.36,224.85,470.4Zm-6.87.08c0,2.09,1.13,4.09,3,4.09s3-2,3-4.14c0-1.65-.76-4.08-3-4.08S218,468.62,218,470.48Z"/><path d="M227.16,475.13v-8.6h-1.28v-.74h1.28v-.57a4.54,4.54,0,0,1,1-3.2,2.67,2.67,0,0,1,1.94-.8,2.7,2.7,0,0,1,1.27.29l-.28.72A2.23,2.23,0,0,0,230,462c-1.58,0-1.9,1.53-1.9,3.22v.58h2.28v.74h-2.28v8.6Z"/><path d="M235.66,462.17a12.47,12.47,0,0,1,2.53-.25,4.37,4.37,0,0,1,3.17,1.06,3.51,3.51,0,0,1,1,2.59,3.81,3.81,0,0,1-.82,2.55,4.49,4.49,0,0,1-3.61,1.5,5.1,5.1,0,0,1-1.34-.12v5.63h-.9Zm.9,6.54a5.06,5.06,0,0,0,1.38.15c2.12,0,3.47-1.1,3.47-3.22,0-1.89-1.22-3-3.27-3a7.73,7.73,0,0,0-1.58.14Z"/><path d="M244.25,468.4c0-.87,0-1.8-.08-2.61H245l0,1.78h0a2.7,2.7,0,0,1,2.46-2,1.66,1.66,0,0,1,.32,0v.9a2,2,0,0,0-.36,0c-1.26,0-2.11,1.13-2.31,2.53a5.9,5.9,0,0,0-.06.86v5.24h-.9Z"/><path d="M249.5,470.29c0,3.22,1.52,4.24,3.19,4.24a4.59,4.59,0,0,0,2.24-.48l.22.7a5.25,5.25,0,0,1-2.59.56c-2.49,0-4-1.95-4-4.71,0-3.07,1.57-5,3.77-5,2.7,0,3.26,2.7,3.26,4.14a4.62,4.62,0,0,1,0,.56Zm5.18-.72c0-1.6-.64-3.22-2.43-3.22s-2.57,1.76-2.71,3.22Z"/><path d="M257.67,465.79l2,5.83c.3.8.55,1.6.76,2.38h0c.21-.75.5-1.57.79-2.38l2-5.83h.94l-3.39,9.34H260l-3.27-9.34Z"/><path d="M265.92,470.29c0,3.22,1.53,4.24,3.2,4.24a4.59,4.59,0,0,0,2.24-.48l.22.7a5.28,5.28,0,0,1-2.59.56c-2.49,0-4-1.95-4-4.71,0-3.07,1.58-5,3.78-5,2.7,0,3.26,2.7,3.26,4.14a4.62,4.62,0,0,1,0,.56Zm5.19-.72c0-1.6-.64-3.22-2.44-3.22s-2.56,1.76-2.71,3.22Z"/><path d="M274.23,468c0-.94,0-1.5-.08-2.21H275l.06,1.53h0a3.12,3.12,0,0,1,2.87-1.73c.93,0,2.92.52,2.92,3.68v5.86H280v-5.7c0-1.59-.53-3.07-2.28-3.07a2.64,2.64,0,0,0-2.47,2.09,3.56,3.56,0,0,0-.1.83v5.85h-.9Z"/><path d="M284.86,463.15v2.64h2.4v.74h-2.4v6.16c0,1.22.39,1.85,1.26,1.85a3,3,0,0,0,.92-.12l.1.69a2.83,2.83,0,0,1-1.15.2,1.8,1.8,0,0,1-1.5-.63,3.36,3.36,0,0,1-.52-2.2v-6h-1.46v-.74H284v-2.33Z"/><path d="M290.29,463.2a.72.72,0,0,1-.75.78.71.71,0,0,1-.68-.78.74.74,0,0,1,.71-.78A.72.72,0,0,1,290.29,463.2Zm-1.17,11.93v-9.34h.9v9.34Z"/><path d="M292.72,465.79l2,5.83c.3.8.56,1.6.77,2.38h0c.21-.75.5-1.57.79-2.38l2-5.83h.93l-3.38,9.34h-.78l-3.28-9.34Z"/><path d="M301,470.29c0,3.22,1.53,4.24,3.19,4.24a4.53,4.53,0,0,0,2.24-.48l.23.7a5.33,5.33,0,0,1-2.6.56c-2.49,0-4-1.95-4-4.71,0-3.07,1.57-5,3.77-5,2.7,0,3.26,2.7,3.26,4.14a4.62,4.62,0,0,1,0,.56Zm5.18-.72c0-1.6-.64-3.22-2.43-3.22s-2.56,1.76-2.71,3.22Z"/><path d="M313.21,462.2a13.84,13.84,0,0,1,2.85-.28,6.14,6.14,0,0,1,4.51,1.52,6.36,6.36,0,0,1,1.69,4.78,7.49,7.49,0,0,1-1.63,5.15,6.48,6.48,0,0,1-5,1.85,21.45,21.45,0,0,1-2.45-.11Zm.89,12.17a12.12,12.12,0,0,0,1.68.08c3.52,0,5.55-2,5.55-6.16,0-3.43-1.63-5.61-5.31-5.61a10.29,10.29,0,0,0-1.92.17Z"/><path d="M324.8,470.29c0,3.22,1.53,4.24,3.19,4.24a4.53,4.53,0,0,0,2.24-.48l.23.7a5.28,5.28,0,0,1-2.59.56c-2.5,0-4-1.95-4-4.71,0-3.07,1.57-5,3.78-5,2.7,0,3.25,2.7,3.25,4.14a4.62,4.62,0,0,1,0,.56Zm5.19-.72c0-1.6-.64-3.22-2.44-3.22s-2.56,1.76-2.71,3.22Z"/><path d="M333.11,468c0-.94,0-1.5-.08-2.21h.83l.06,1.53h0a3.11,3.11,0,0,1,2.87-1.73c.92,0,2.92.52,2.92,3.68v5.86h-.9v-5.7c0-1.59-.53-3.07-2.27-3.07a2.63,2.63,0,0,0-2.47,2.09,3.56,3.56,0,0,0-.1.83v5.85h-.9Z"/><path d="M343.74,463.15v2.64h2.4v.74h-2.4v6.16c0,1.22.39,1.85,1.26,1.85a2.84,2.84,0,0,0,.91-.12l.11.69a2.83,2.83,0,0,1-1.15.2,1.8,1.8,0,0,1-1.5-.63,3.35,3.35,0,0,1-.53-2.2v-6h-1.45v-.74h1.45v-2.33Z"/><path d="M349.16,463.2a.71.71,0,0,1-.74.78.72.72,0,0,1-.69-.78.74.74,0,0,1,.72-.78A.71.71,0,0,1,349.16,463.2ZM348,475.13v-9.34h.9v9.34Z"/><path d="M351.41,473.94a3.6,3.6,0,0,0,1.9.6,1.75,1.75,0,0,0,2-1.75c0-1-.51-1.55-1.76-2.13s-2.22-1.43-2.22-2.59a2.51,2.51,0,0,1,2.7-2.48,3.27,3.27,0,0,1,1.9.57l-.37.73a2.72,2.72,0,0,0-1.65-.53,1.56,1.56,0,0,0-1.69,1.57c0,.91.54,1.33,1.72,1.9s2.27,1.38,2.27,2.8a2.66,2.66,0,0,1-3,2.68,4,4,0,0,1-2.17-.61Z"/><path d="M359.68,463.15v2.64h2.4v.74h-2.4v6.16c0,1.22.39,1.85,1.26,1.85a2.84,2.84,0,0,0,.91-.12l.11.69a2.83,2.83,0,0,1-1.15.2,1.8,1.8,0,0,1-1.5-.63,3.35,3.35,0,0,1-.53-2.2v-6h-1.45v-.74h1.45v-2.33Z"/><path d="M363.93,468.4c0-.87,0-1.8-.08-2.61h.84l0,1.78h0a2.72,2.72,0,0,1,2.46-2,1.66,1.66,0,0,1,.32,0v.9a2,2,0,0,0-.36,0c-1.26,0-2.11,1.13-2.31,2.53a5.9,5.9,0,0,0-.06.86v5.24h-.9Z"/><path d="M369.56,465.79l2.15,6c.24.71.45,1.45.62,2.06h0c.16-.58.4-1.33.64-2.1l2-5.94H376l-2.35,6.45c-1,2.85-1.74,4.83-2.94,6a5.49,5.49,0,0,1-1.56,1.1l-.34-.76a4.92,4.92,0,0,0,1.56-1.15,7.63,7.63,0,0,0,1.35-2.21,1.31,1.31,0,0,0,.11-.43,1,1,0,0,0-.09-.4l-3.09-8.64Z"/><g class="cls-2"><image width="750" height="750" transform="translate(-73.05 -19.46) scale(0.81)" xlink:href="../../AAPD%202026%20hidir/vid%20content/AAPD%20LOGO%202026_final.png"/></g></svg>