<svg id="Layer_1" viewBox="0 0 64 64" xmlns="http://www.w3.org/2000/svg" data-name="Layer 1"><path d="m2.16 43.979a1 1 0 0 0 -.071.955l2.6 5.732a3.726 3.726 0 0 0 3.383 2.179h47.856a3.725 3.725 0 0 0 3.383-2.18l2.6-5.731a1 1 0 0 0 -.911-1.413h-3.4v-29.238a3.133 3.133 0 0 0 -3.128-3.128h-44.94a3.133 3.133 0 0 0 -3.132 3.128v29.238h-3.4a1 1 0 0 0 -.84.458zm6.24-29.696a1.129 1.129 0 0 1 1.128-1.128h44.94a1.129 1.129 0 0 1 1.132 1.128v29.238h-47.2zm-1 31.238h52.048l-1.959 4.317a1.717 1.717 0 0 1 -1.561 1.007h-47.856a1.718 1.718 0 0 1 -1.561-1.006l-1.959-4.318z"/><path d="m42.581 16.548h-21.162a1 1 0 0 0 -1 1v21.161a1 1 0 0 0 1 1h21.162a1 1 0 0 0 1-1v-21.161a1 1 0 0 0 -1-1zm-1 21.161h-19.162v-19.161h19.162z"/><path d="m26.935 26.284a1 1 0 0 0 1.414 0l3.251-3.254a1 1 0 0 0 -1.414-1.414l-2.547 2.547-.842-.841a1 1 0 0 0 -1.414 1.414z"/><path d="m34.007 25.258h4.731a1 1 0 0 0 0-2h-4.731a1 1 0 0 0 0 2z"/><path d="m26.935 33.08a1 1 0 0 0 1.414 0l3.251-3.255a1 1 0 0 0 -1.414-1.414l-2.547 2.547-.842-.841a1 1 0 1 0 -1.414 1.414z"/><path d="m34.007 32.054h4.731a1 1 0 0 0 0-2h-4.731a1 1 0 1 0 0 2z"/><path d="m9.39 49.18a.986.986 0 0 0 .38-.07 1.016 1.016 0 0 0 .32-.22.974.974 0 0 0 .22-1.09 1.066 1.066 0 0 0 -.54-.54 1.021 1.021 0 0 0 -1.09.22 1.212 1.212 0 0 0 -.22.32 1 1 0 0 0 .93 1.38z"/><path d="m13.71 49.18a.986.986 0 0 0 .38-.07 1.19 1.19 0 0 0 .33-.22 1.033 1.033 0 0 0 .29-.71 1 1 0 0 0 -.62-.92 1.021 1.021 0 0 0 -1.09.22 1.039 1.039 0 0 0 -.29.7 1.033 1.033 0 0 0 .29.71 1.007 1.007 0 0 0 .71.29z"/><path d="m18.03 49.18a.68.68 0 0 0 .2-.02 1.8 1.8 0 0 0 .19-.05 1.505 1.505 0 0 0 .17-.1.789.789 0 0 0 .15-.12 1.033 1.033 0 0 0 .29-.71.986.986 0 0 0 -.07-.38 1.212 1.212 0 0 0 -.22-.32 1.738 1.738 0 0 0 -.15-.13.7.7 0 0 0 -.17-.09.824.824 0 0 0 -.19-.06 1 1 0 0 0 -.9.28.875.875 0 0 0 -.22.32.974.974 0 0 0 .22 1.09.967.967 0 0 0 .7.29z"/><path d="m11.387 18.839a1 1 0 0 0 -1 1v1.87a1 1 0 1 0 2 0v-1.87a1 1 0 0 0 -1-1z"/><path d="m11.387 23.548a1 1 0 0 0 -1 1v6.968a1 1 0 0 0 2 0v-6.968a1 1 0 0 0 -1-1z"/></svg>