<svg fill="none" height="24" viewBox="0 0 24 24" width="24" xmlns="http://www.w3.org/2000/svg"><path clip-rule="evenodd" d="m4 2.5c-.82843 0-1.5.67157-1.5 1.5v16c0 .8284.67157 1.5 1.5 1.5h7.5v-6.5h-2c-.27614 0-.5-.2239-.5-.5v-3.5c0-.2761.22386-.5.5-.5h2v-2.5c0-2.20914 1.7909-4 4-4h3.5c.2761 0 .5.22386.5.5v3.5c0 .27614-.2239.5-.5.5h-1.5c-.5523 0-1 .44772-1 1v1h2.5c.1569 0 .3047.0736.3992.1989s.1247.2876.0816.4385l-1 3.5c-.0614.2146-.2576.3626-.4808.3626h-1.5v6.5h3.5c.8284 0 1.5-.6716 1.5-1.5v-16c0-.82843-.6716-1.5-1.5-1.5zm-2.5 1.5c0-1.38071 1.11929-2.5 2.5-2.5h16c1.3807 0 2.5 1.11929 2.5 2.5v16c0 1.3807-1.1193 2.5-2.5 2.5h-4c-.2761 0-.5-.2239-.5-.5v-7.5c0-.2761.2239-.5.5-.5h1.6228l.7143-2.5h-2.3371c-.2761 0-.5-.2239-.5-.5v-1.5c0-1.10457.8954-2 2-2h1v-2.5h-3c-1.6569 0-3 1.34315-3 3v3c0 .2761-.2239.5-.5.5h-2v2.5h2c.2761 0 .5.2239.5.5v7.5c0 .2761-.2239.5-.5.5h-8c-1.38071 0-2.5-1.1193-2.5-2.5z" fill="#000" fill-rule="evenodd"/></svg>