<svg id="Layer_1" data-name="Layer 1" xmlns="http://www.w3.org/2000/svg" viewBox="0 0 512 257.31"><defs><style>.cls-1{fill:#00ac5b;}.cls-2{fill:#231f20;}</style></defs><path class="cls-1" d="M103.28,211.55l-6.66,33.19H5L32.91,100.68h34L45.46,211.55Zm44.65,33.19,27.88-144.06h-35L113,244.74Zm345.6-144.06h-35L441.43,189.2,402.8,100.68h-35L339.94,244.74h34.95l16.43-83.14L427,244.74h38.69ZM256.82,98.32a74.4,74.4,0,1,0,74.4,74.41A74.42,74.42,0,0,0,256.82,98.32Zm41.67,74.41a41.69,41.69,0,1,1-41.67-41.68A41.67,41.67,0,0,1,298.49,172.73Z"/><path class="cls-2" d="M49.32,8.76H63.25L50.62,77.21H36.7ZM78.07,77.21H92l8.39-45.45,0-.27H86.52ZM95.83,12a7.51,7.51,0,0,0-7.51,7.2,6.81,6.81,0,0,0,6.9,7.22,7.52,7.52,0,0,0,7.52-7.2A6.81,6.81,0,0,0,95.83,12ZM164,10.18a27.26,27.26,0,0,0-10.86-2.32,20.34,20.34,0,0,0-14.37,5.64c-4.29,4.1-7.07,10.16-8.29,18h-9.27L119.3,41.92h9.17L121.85,77.2h13.93l6.61-35.28h8.78l1.91-10.43h-8.69c1-8.21,4.28-12.2,10.07-12.2,2.34,0,4.2.54,7.37,2.17l.28.14,2.06-11.36Zm41.11,27.13c3.65,4.74,4.56,11.49,2.58,19l-.05.17H178.06c-.42,3.33.28,6.15,2,8.15a9.91,9.91,0,0,0,7.64,3.06c3.83,0,8.72-1.32,16.86-4.57L205,63l-3,11.82-.12,0a47.77,47.77,0,0,1-16,3.3c-6.88,0-12.57-2.14-16.45-6.2s-5.64-9.51-5.35-16.07a26.33,26.33,0,0,1,8-17.81,25.49,25.49,0,0,1,17.86-7.33C196.53,30.7,201.77,33,205.11,37.31ZM179.83,48.24h15.33a7,7,0,0,0-1.1-5.78,6,6,0,0,0-4.83-2C185,40.42,182,42.91,179.83,48.24Zm54,12.57a9.07,9.07,0,0,0-9,8.59A8.24,8.24,0,0,0,233.08,78a9.07,9.07,0,0,0,9-8.59,8.22,8.22,0,0,0-8.24-8.61Zm236.24-23.5c3.65,4.74,4.57,11.49,2.58,19l0,.17H443c-.42,3.34.28,6.15,2,8.15a9.92,9.92,0,0,0,7.64,3.06c3.83,0,8.72-1.32,16.87-4.57l.41-.16-3,11.82-.11,0a47.82,47.82,0,0,1-16,3.3c-6.88,0-12.56-2.14-16.45-6.2S428.75,62.4,429,55.84A26.38,26.38,0,0,1,437,38a25.5,25.5,0,0,1,17.86-7.33C461.47,30.7,466.71,33,470.05,37.31ZM444.77,48.24H460.1A7,7,0,0,0,459,42.46a6,6,0,0,0-4.84-2C449.94,40.42,447,42.91,444.77,48.24Zm59.94,15.1a8.18,8.18,0,0,0-6-2.53,9.08,9.08,0,0,0-9,8.59A8.24,8.24,0,0,0,498,78a9.07,9.07,0,0,0,9-8.59A8.18,8.18,0,0,0,504.71,63.34ZM273.09,77.21H287L299.64,8.76H285.72Zm82.36-40.16c3.71,3.88,5.53,9.14,5.27,15.22a26.85,26.85,0,0,1-27.07,25.84,22.42,22.42,0,0,1-16.44-6.71A20.68,20.68,0,0,1,311.54,56a25.88,25.88,0,0,1,8.53-17.88A27.81,27.81,0,0,1,339,30.7C345.68,30.7,351.53,33,355.45,37.05ZM328.36,64.14a8.28,8.28,0,0,0,5.86,2.55c7.81,0,11.84-8.86,12.1-14.84A9.7,9.7,0,0,0,344,44.5a8.1,8.1,0,0,0-6-2.38c-8.49,0-11.79,10.12-12,14.74A9.63,9.63,0,0,0,328.36,64.14Zm64.09-7.71-4.52-24.75,0-.19H374.37L384,77.83l0,.18h9.49l26.8-46.52H405.52Z"/></svg>