<svg id="Layer_1" enable-background="new 0 0 512 512" height="512" viewBox="0 0 512 512" width="512" xmlns="http://www.w3.org/2000/svg"><g><g><path d="m256.5 507.5c-67 0-130.1-26.1-177.5-73.5s-73.5-110.5-73.5-177.5 26.1-130.1 73.5-177.5 110.5-73.5 177.5-73.5 130.1 26.1 177.5 73.5 73.5 110.4 73.5 177.5c0 67-26.1 130.1-73.5 177.5s-110.5 73.5-177.5 73.5zm0-477c-124.6 0-226 101.4-226 226s101.4 226 226 226 226-101.4 226-226-101.4-226-226-226z" fill="rgb(0,0,0)"/></g><g><g><path d="m322.8 303.5c-6.9 0-12.5-5.6-12.5-12.5v-89.3h-89.3c-6.9 0-12.5-5.6-12.5-12.5s5.6-12.5 12.5-12.5h101.8c6.9 0 12.5 5.6 12.5 12.5v101.8c0 6.9-5.6 12.5-12.5 12.5z" fill="rgb(0,0,0)"/></g><g><path d="m221 303.5c-3.2 0-6.4-1.2-8.8-3.7-4.9-4.9-4.9-12.8 0-17.7l101.8-101.7c4.9-4.9 12.8-4.9 17.7 0s4.9 12.8 0 17.7l-101.9 101.7c-2.4 2.5-5.6 3.7-8.8 3.7z" fill="rgb(0,0,0)"/></g><g><path d="m189.2 335.3c-3.2 0-6.4-1.2-8.8-3.7-4.9-4.9-4.9-12.8 0-17.7l6.3-6.3c4.9-4.9 12.8-4.9 17.7 0s4.9 12.8 0 17.7l-6.3 6.3c-2.5 2.5-5.7 3.7-8.9 3.7z" fill="rgb(0,0,0)"/></g></g></g></svg>