<svg id="Capa_1" enable-background="new 0 0 500.667 500.667" height="512" viewBox="0 0 500.667 500.667" width="512" xmlns="http://www.w3.org/2000/svg"><g><g id="maximize_2"><path d="m250.333 0c-138.025 0-250.333 112.308-250.333 250.333s112.308 250.333 250.333 250.333 250.333-112.308 250.333-250.333-112.307-250.333-250.333-250.333zm0 450.6c-110.425 0-200.267-89.841-200.267-200.267s89.842-200.266 200.267-200.266 200.267 89.841 200.267 200.266-89.841 200.267-200.267 200.267zm125.167-150.2c0 41.413-33.687 75.1-75.1 75.1h-100.133c-41.413 0-75.1-33.687-75.1-75.1v-100.133c0-41.413 33.687-75.1 75.1-75.1 13.837 0 25.033 11.197 25.033 25.033 0 13.837-11.197 25.033-25.033 25.033-13.812 0-25.033 11.221-25.033 25.033v100.134c0 13.812 11.221 25.033 25.033 25.033h100.133c13.812 0 25.033-11.221 25.033-25.033 0-13.837 11.197-25.033 25.033-25.033s25.034 11.196 25.034 25.033zm0-150.2v75.1c0 13.837-11.197 25.033-25.033 25.033s-25.033-11.197-25.033-25.033v-14.668l-57.401 57.401c-4.889 4.889-11.294 7.334-17.699 7.334s-12.81-2.445-17.699-7.334c-9.779-9.779-9.779-25.62 0-35.399l57.401-57.401h-14.668c-13.837 0-25.033-11.197-25.033-25.033 0-13.837 11.197-25.033 25.033-25.033h75.1c13.835 0 25.032 11.196 25.032 25.033z"/></g></g></svg>