<svg id="Layer_1" viewBox="0 0 512 512" xmlns="http://www.w3.org/2000/svg" data-name="Layer 1"><path d="m299.343 378.977h-192.603c-3.313 0-6-2.687-6-6s2.687-6 6-6h192.603c3.313 0 6 2.687 6 6s-2.687 6-6 6zm-25.782 26.585h-166.821c-3.313 0-6 2.686-6 6s2.687 6 6 6h166.82c3.313 0 6-2.686 6-6s-2.687-6-6-6zm0 38.585h-166.821c-3.313 0-6 2.686-6 6s2.687 6 6 6h166.82c3.313 0 6-2.686 6-6s-2.687-6-6-6zm-166.82-103.756h192.603c3.313 0 6-2.686 6-6s-2.687-6-6-6h-192.604c-3.313 0-6 2.686-6 6s2.687 6 6 6zm-4.902-54.001v-35.455c0-.073 0-.146.004-.219.882-24.159 19.442-42.945 49.385-50.988-8.431-8.356-13.663-19.934-13.663-32.713 0-25.41 20.673-46.083 46.083-46.083s46.082 20.672 46.082 46.083c0 12.789-5.24 24.374-13.681 32.731 9.21 2.49 17.518 6.037 24.541 10.506 3.678-.824 7.497-1.273 11.419-1.273 28.804 0 52.237 23.433 52.237 52.236s-23.434 52.236-52.237 52.236c-17.128 0-32.355-8.287-41.887-21.062h-102.284c-3.313 0-6-2.687-6-6zm109.936-25.174c0 22.187 18.05 40.236 40.235 40.236s40.237-18.05 40.237-40.236-18.051-40.236-40.237-40.236-40.235 18.05-40.235 40.236zm-28.126-60.118c18.793 0 34.082-15.29 34.082-34.083s-15.289-34.083-34.082-34.083-34.083 15.29-34.083 34.083 15.289 34.083 34.083 34.083zm-69.81 79.292h89.597c-2.354-5.941-3.662-12.406-3.662-19.174 0-19.321 10.552-36.212 26.188-45.249-6.919-3.147-14.872-5.481-23.537-6.884-5.739 2.572-12.091 4.015-18.777 4.015s-13.039-1.443-18.779-4.016c-24.36 3.972-50.048 16.953-51.03 41.968zm122.357-3.221c1.84 2.51 4.548 4.153 7.624 4.627.601.093 1.202.138 1.799.138 2.457 0 4.844-.776 6.861-2.255 1.011-.74 1.889-1.631 2.612-2.648l19.836-26.979c1.963-2.67 1.39-6.425-1.28-8.388-2.669-1.962-6.424-1.39-8.388 1.28l-19.667 26.749-6.833-9.293c-1.963-2.67-5.72-3.243-8.389-1.28s-3.242 5.719-1.279 8.388l7.104 9.662zm248.434-81.752-50.014 86.626-.18 167.811c-.004 3.312-2.688 5.994-6 5.994h-46.076v46.076c0 3.313-2.687 6-6 6h-346.635c-3.313 0-6-2.687-6-6v-439.922c0-3.313 2.687-6 6-6h46.413l.04-45.933c.003-3.312 2.688-5.995 6-5.995h346.61c3.313 0 6 2.687 6 6 0 49.427-.022 101.63-.07 162.75l2.695-4.669c3.629-6.286 9.51-10.788 16.56-12.677 7.047-1.889 14.393-.93 20.679 2.699 13.018 7.515 17.494 24.22 9.979 37.238zm-396.493-139.415h216.774c.201 0 .401.01.6.03.147.015.291.04.435.065.049.009.098.013.146.022.172.034.34.078.506.127.021.006.042.01.062.016.169.051.333.112.496.178.019.007.038.013.056.02.155.064.305.137.453.214.026.013.053.024.079.038.137.073.268.155.398.239.035.022.071.041.106.064.129.086.251.181.373.276.032.025.066.047.098.073.152.125.299.258.438.397l71.443 71.443c.14.139.272.286.397.438.028.034.052.071.079.106.094.119.186.239.271.365.025.038.046.078.07.116.081.127.161.255.232.388.016.03.029.062.044.092.074.144.145.289.208.439.009.022.016.044.024.066.064.159.124.32.174.485.007.024.012.05.019.074.047.162.091.326.124.494.01.05.014.101.023.151.025.142.05.285.064.43.02.198.03.398.03.599v130.06l17.627-30.531s.003-.006.005-.009.004-.006.005-.009l22.703-39.322c.058-67.698.085-124.363.087-177.564h-334.614l-.035 39.927zm222.774 20.485v50.962h50.963zm59.448 316.851-20.125 34.859c-.003.005-.006.01-.009.015l-.039.067c-.006.011-.016.02-.022.032-.188.321-.406.627-.655.913-.013.015-.028.028-.041.043-.244.273-.513.528-.811.758-.019.014-.038.026-.057.04-.129.097-.259.193-.397.281l-38.735 24.569c-.979.621-2.096.933-3.214.933-1.035 0-2.07-.267-3-.804-1.934-1.117-3.088-3.215-2.995-5.446l1.906-45.74s0-.003 0-.004l.003-.086c.002-.055.011-.108.015-.162.009-.133.019-.267.037-.4.011-.082.028-.162.043-.244.02-.11.038-.22.064-.33.025-.108.057-.213.088-.318.023-.079.044-.158.071-.236.048-.141.104-.277.161-.413.018-.041.033-.083.051-.124.081-.179.169-.352.267-.521v-.003s.002-.001.002-.001c.023-.041.046-.082.07-.122l67.32-116.6v-144.845h-65.448c-3.313 0-6-2.687-6-6v-65.448h-263.184v427.922h334.635v-102.586zm-57.632 45.299 20.68-13.118-19.66-11.351zm107.693-156.008-26.432-15.261-77.627 134.453 26.433 15.261zm2.173 20.237-40.234 69.687v71.295h40.083zm11.223-43.44-26.432-15.26-7.396 12.81 26.432 15.261zm34.834-90.856c-3.51-2.027-7.62-2.559-11.573-1.5s-7.246 3.575-9.272 7.085l-34.42 59.617 26.432 15.26 34.42-59.617c4.207-7.288 1.701-16.639-5.586-20.846z"/></svg>