<?xml version="1.0" encoding="iso-8859-1"?>
<!-- Generator: Adobe Illustrator 19.0.0, SVG Export Plug-In . SVG Version: 6.00 Build 0)  -->
<svg version="1.1" id="Layer_1" xmlns="http://www.w3.org/2000/svg" xmlns:xlink="http://www.w3.org/1999/xlink" x="0px" y="0px"
	 viewBox="0 0 512 512" style="enable-background:new 0 0 512 512;" xml:space="preserve">
<circle style="fill:#71E2EF;" cx="256" cy="256" r="256"/>
<path style="fill:#38C6D9;" d="M511.9,248.956L408.466,145.522l-335.2,139.285l225.966,223.541C420.026,487.798,512,382.648,512,256
	C512,253.643,511.964,251.297,511.9,248.956z"/>
<path style="fill:#63696B;" d="M103.534,145.523c0,0,44.048-10.821,64.543,9.675s24.826,49.39,9.675,64.543
	c-15.151,15.153-44.048,10.821-64.543-9.675S103.534,145.523,103.534,145.523z"/>
<path style="fill:#5B5F60;" d="M334.25,219.739c-15.151-15.151-10.821-44.048,9.675-64.541c20.494-20.494,64.543-9.675,64.543-9.675
	s10.821,44.048-9.675,64.541C378.297,230.559,349.401,234.891,334.25,219.739z"/>
<path style="fill:#434849;" d="M414.751,272.81c0,67.836-71.075,96.968-158.751,96.968S97.249,340.645,97.249,272.81
	S168.324,146.532,256,146.532S414.751,204.974,414.751,272.81z"/>
<path style="fill:#303333;" d="M414.751,272.81c0-67.762-70.92-126.147-158.463-126.274v223.241
	C343.831,369.712,414.751,340.571,414.751,272.81z"/>
<path style="fill:#F8FEFF;" d="M243.748,252.904c-7.839-28.77-42.537-46.863-77.498-40.412s-92.984,72.314-92.984,72.314
	s86.411,38.322,121.373,31.872C229.6,310.227,251.589,281.674,243.748,252.904z"/>
<path style="fill:#6D7375;" d="M236.11,255.84c-5.818-21.359-31.57-34.792-57.518-30.003c-25.948,4.789-70.803,53.688-70.803,53.688
	s65.924,28.451,91.87,23.662C225.611,298.396,241.928,277.199,236.11,255.84z"/>
<circle style="fill:#333535;" cx="193.767" cy="267.55" r="10.999"/>
<path style="fill:#F8FEFF;" d="M268.252,252.904c7.839-28.77,42.537-46.863,77.498-40.412s92.984,72.314,92.984,72.314
	s-86.411,38.322-121.373,31.872C282.4,310.227,260.413,281.674,268.252,252.904z"/>
<path style="fill:#6D7375;" d="M275.89,255.84c5.818-21.359,31.57-34.792,57.518-30.003c25.948,4.789,70.803,53.688,70.803,53.688
	s-65.924,28.451-91.87,23.662C286.391,298.396,270.072,277.199,275.89,255.84z"/>
<circle style="fill:#333535;" cx="318.233" cy="267.55" r="10.999"/>
<path style="fill:#92999B;" d="M308.262,365.873c0.767-3.31,1.179-6.742,1.179-10.262c0-27.105-23.926-45.308-53.441-45.308
	s-53.441,18.203-53.441,45.308c0,3.52,0.412,6.953,1.179,10.262c16.367,2.629,33.951,3.905,52.262,3.905
	S291.895,368.502,308.262,365.873z"/>
<path style="fill:#6D7375;" d="M309.441,355.611c0-27.015-23.771-45.184-53.153-45.303v59.466
	c18.208-0.014,35.693-1.288,51.974-3.903C309.029,362.561,309.441,359.131,309.441,355.611z"/>
<path style="fill:#434849;" d="M246.27,347.965l-9.973-12.828c-4.93-6.344,0.593-14.674,9.73-14.674h19.944
	c9.137,0,14.662,8.33,9.73,14.674l-9.973,12.828C261.182,353.814,250.818,353.814,246.27,347.965z"/>
<path style="fill:#303333;" d="M265.973,320.464h-9.683v31.875c3.631-0.074,7.227-1.524,9.442-4.374l9.973-12.828
	C280.633,328.794,275.109,320.464,265.973,320.464z"/>
<g>
</g>
<g>
</g>
<g>
</g>
<g>
</g>
<g>
</g>
<g>
</g>
<g>
</g>
<g>
</g>
<g>
</g>
<g>
</g>
<g>
</g>
<g>
</g>
<g>
</g>
<g>
</g>
<g>
</g>
</svg>
