<?xml version="1.0" encoding="iso-8859-1"?>
<!-- Generator: Adobe Illustrator 19.0.0, SVG Export Plug-In . SVG Version: 6.00 Build 0)  -->
<svg version="1.1" id="Layer_1" xmlns="http://www.w3.org/2000/svg" xmlns:xlink="http://www.w3.org/1999/xlink" x="0px" y="0px"
	 viewBox="0 0 512 512" style="enable-background:new 0 0 512 512;" xml:space="preserve">
<circle style="fill:#FFDC58;" cx="256" cy="256" r="256"/>
<path style="fill:#FFBE00;" d="M322.474,503.265c100.74-27.015,176.956-113.938,188.107-220.248L381.816,154.252l-147.049,117.02
	l-91.008-91.008l-13.59,19.889l85.954,85.954l-74.033,36.776L322.474,503.265z"/>
<circle style="fill:#804000;" cx="153.117" cy="177.2" r="32.447"/>
<circle style="fill:#703500;" cx="153.117" cy="177.2" r="22.95"/>
<circle style="fill:#753801;" cx="358.883" cy="177.2" r="32.447"/>
<circle style="fill:#592800;" cx="358.883" cy="177.2" r="22.95"/>
<path style="fill:#935635;" d="M386.581,271.772c0,64.905-58.463,91.405-130.579,91.405s-130.579-26.5-130.579-91.405
	s58.463-143.638,130.579-143.638S386.581,206.867,386.581,271.772z"/>
<path style="fill:#804000;" d="M256.002,128.136c-0.048,0-0.095,0.002-0.143,0.002v235.037c0.048,0,0.095,0.002,0.143,0.002
	c72.116,0,130.579-26.5,130.579-91.405C386.581,206.867,328.118,128.136,256.002,128.136z"/>
<circle style="fill:#2B3B4E;" cx="207.196" cy="256.345" r="9.761"/>
<circle style="fill:#202D3A;" cx="304.804" cy="256.345" r="9.761"/>
<path style="fill:#B97850;" d="M295.174,308.176c0,21.635-17.539,24.929-39.174,24.929s-39.174-3.294-39.174-24.929
	c0-21.635,17.539-49.462,39.174-49.462S295.174,286.541,295.174,308.176z"/>
<path style="fill:#935635;" d="M256.002,258.715c-0.048,0-0.095,0.005-0.143,0.005v74.385c0.048,0,0.095,0,0.143,0
	c21.635,0,39.174-3.294,39.174-24.929C295.174,286.541,277.635,258.715,256.002,258.715z"/>
<path style="fill:#324A5E;" d="M271.829,260.642c0-5.673-7.087-6.537-15.827-6.537c-8.742,0-15.827,0.864-15.827,6.537
	c0,5.099,5.734,11.493,13.241,12.736v37.567h5.172v-37.567C266.095,272.136,271.829,265.742,271.829,260.642z"/>
<path style="fill:#2B3B4E;" d="M271.829,260.642c0-5.673-7.087-6.537-15.827-6.537c-0.048,0-0.095,0-0.143,0.002v4.608v14.889
	v37.343h2.729V273.38C266.095,272.136,271.829,265.742,271.829,260.642z"/>
<g>
</g>
<g>
</g>
<g>
</g>
<g>
</g>
<g>
</g>
<g>
</g>
<g>
</g>
<g>
</g>
<g>
</g>
<g>
</g>
<g>
</g>
<g>
</g>
<g>
</g>
<g>
</g>
<g>
</g>
</svg>
