<?xml version="1.0" encoding="iso-8859-1"?>
<!-- Generator: Adobe Illustrator 19.0.0, SVG Export Plug-In . SVG Version: 6.00 Build 0)  -->
<svg version="1.1" id="Layer_1" xmlns="http://www.w3.org/2000/svg" xmlns:xlink="http://www.w3.org/1999/xlink" x="0px" y="0px"
	 viewBox="0 0 512 512" style="enable-background:new 0 0 512 512;" xml:space="preserve">
<circle style="fill:#263A7A;" cx="256" cy="256" r="256"/>
<path style="fill:#121149;" d="M413.346,192.214L143.715,330.249l174.195,174.195c101.148-25.124,178.541-110.383,192.005-215.643
	L413.346,192.214z"/>
<circle style="fill:#D48B07;" cx="128.483" cy="220.953" r="41.408"/>
<circle style="fill:#B7760D;" cx="383.517" cy="220.953" r="41.408"/>
<path style="fill:#FFC61B;" d="M404.692,248.177c0,69.965-66.572,126.683-148.692,126.683s-148.692-56.718-148.692-126.683
	S173.88,147.003,256,147.003S404.692,178.212,404.692,248.177z"/>
<path style="fill:#D89D09;" d="M256,147.001c-0.193,0-0.381,0.007-0.574,0.007v227.838c0.193,0,0.381,0.012,0.574,0.012
	c82.12,0,148.692-56.718,148.692-126.683C404.692,178.21,338.12,147.001,256,147.001z"/>
<g>
	<circle style="fill:#121149;" cx="197.749" cy="253.328" r="10.378"/>
	<circle style="fill:#121149;" cx="314.251" cy="253.328" r="10.378"/>
</g>
<path style="fill:#FEE187;" d="M256,286.051c-36.2,0-65.548,25.524-65.548,57.01c0,7.265,1.579,14.203,4.427,20.594
	c18.649,7.177,39.327,11.205,61.121,11.205s42.472-4.029,61.121-11.205c2.848-6.389,4.427-13.329,4.427-20.592
	C321.548,311.575,292.2,286.051,256,286.051z"/>
<path style="fill:#E0BD5A;" d="M256.574,286.051c-0.193,0-0.383,0.01-0.574,0.012v88.781c0.193,0,0.381,0.014,0.574,0.014
	c21.794,0,42.472-4.029,61.121-11.205c2.848-6.389,4.427-13.329,4.427-20.592C322.122,311.575,292.774,286.051,256.574,286.051z"/>
<path style="fill:#773426;" d="M267.242,282.369h-22.483c-10.3,0-16.529,9.392-10.969,16.543l11.242,14.462
	c1.352,1.738,3.163,3.005,5.186,3.825v37.838c0,3.194,2.591,5.784,5.784,5.784s5.784-2.591,5.784-5.784v-37.838
	c2.022-0.822,3.834-2.089,5.186-3.825l11.242-14.462C283.77,291.761,277.544,282.369,267.242,282.369z"/>
<path style="fill:#60261D;" d="M267.242,282.369h-11.816v78.395c0.191,0.019,0.378,0.059,0.574,0.059
	c3.194,0,5.784-2.591,5.784-5.784v-37.84c2.022-0.822,3.834-2.089,5.186-3.825l11.242-14.462
	C283.77,291.761,277.544,282.369,267.242,282.369z"/>
<path style="fill:#D48B07;" d="M256,250.901l19.49-103.265c-6.384-0.409-12.879-0.633-19.492-0.633
	c-6.611,0-13.107,0.226-19.49,0.633L256,250.901z"/>
<g>
	<path style="fill:#B7760D;" d="M275.49,147.635c-6.384-0.409-12.879-0.633-19.492-0.633c-0.193,0-0.381,0.009-0.574,0.009V247.86
		l0.574,3.041L275.49,147.635z"/>
	<path style="fill:#B7760D;" d="M401.62,273.891c1.264-5.22,2.108-10.566,2.591-15.998l-43.951,5.403L401.62,273.891z"/>
	<path style="fill:#B7760D;" d="M379.842,318.281c4.391-5.618,8.245-11.559,11.554-17.76l-54.655,6.718L379.842,318.281z"/>
</g>
<g>
	<path style="fill:#D48B07;" d="M110.378,273.891l41.36-10.597l-43.953-5.403C108.272,263.325,109.116,268.671,110.378,273.891z"/>
	<path style="fill:#D48B07;" d="M132.156,318.281l43.101-11.042l-54.655-6.718C123.911,306.721,127.767,312.663,132.156,318.281z"/>
</g>
<g>
</g>
<g>
</g>
<g>
</g>
<g>
</g>
<g>
</g>
<g>
</g>
<g>
</g>
<g>
</g>
<g>
</g>
<g>
</g>
<g>
</g>
<g>
</g>
<g>
</g>
<g>
</g>
<g>
</g>
</svg>
