<svg id="Capa_1" enable-background="new 0 0 512 512" height="512" viewBox="0 0 512 512" width="512" xmlns="http://www.w3.org/2000/svg"><g><circle cx="256" cy="256" fill="#50bf94" r="256"/><path d="m512 256c0-6.927-.284-13.787-.824-20.575-43.732-43.733-116.844-116.843-116.844-116.843l-275.712 275.798s73.055 73.057 116.793 116.794c6.792.541 13.656.826 20.587.826 141.385 0 256-114.615 256-256z" fill="#54a685"/><g><path d="m256 61-39.99 84.739 226.886 54.502c-23.989-80.523-98.579-139.241-186.896-139.241z" fill="#ae6e5a"/><path d="m442.896 200.24c-14.472-46.594-57.573-78.62-106.915-78.62-30.538 0-59.008 12.094-79.98 33.59l-129.045 100.79 129.044 195c107.695 0 195-87.304 195-195 0-19.379-2.841-38.091-8.104-55.76z" fill="#fae8ac"/><path d="m69.094 200.273 186.906-45.062v-94.211c-88.329 0-162.927 58.734-186.906 139.273z" fill="#d7795c"/><path d="m69.094 200.273c-5.257 17.659-8.094 36.36-8.094 55.727 0 107.696 87.304 195 195 195v-295.789c-20.973-21.496-49.443-33.59-79.981-33.59-49.354 0-92.463 32.041-106.925 78.652z" fill="#fdf6df"/><ellipse cx="176.02" cy="233.594" fill="#464342" rx="30.469" ry="30.469" transform="matrix(.707 -.707 .707 .707 -113.621 192.883)"/><ellipse cx="335.98" cy="233.594" fill="#292827" rx="30.469" ry="30.469" transform="matrix(.23 -.973 .973 .23 31.443 506.917)"/><path d="m256 369.245c23.905-13.829 39.99-39.674 39.99-69.278l-62.842-22.852z" fill="#fc9f63"/><path d="m216.01 299.968c0 29.604 16.085 55.449 39.99 69.278v-92.129z" fill="#f9bb69"/><path d="m256 233.594-22.852 33.187 22.852 33.187h39.99v-66.374z" fill="#f6d76f"/><path d="m216.01 233.594h39.99v66.374h-39.99z" fill="#fae8ac"/></g></g></svg>