<?xml version="1.0" encoding="iso-8859-1"?>
<!-- Generator: Adobe Illustrator 19.0.0, SVG Export Plug-In . SVG Version: 6.00 Build 0)  -->
<svg version="1.1" id="Capa_1" xmlns="http://www.w3.org/2000/svg" xmlns:xlink="http://www.w3.org/1999/xlink" x="0px" y="0px"
	 viewBox="0 0 512.007 512.007" style="enable-background:new 0 0 512.007 512.007;" xml:space="preserve">
<circle style="fill:#FF6473;" cx="256.003" cy="256.003" r="256.003"/>
<path style="fill:#C23442;" d="M512,256c0-8.988-0.468-17.866-1.372-26.615L401.075,119.989l0,0
	c-1.519-1.249-3.169-2.256-4.964-2.972c-17.219-6.873-42.909,14.027-61.305,38.028c-24.244-13.872-51.715-20.639-79.1-20.638
	c-28.954,0-55.947,7.488-78.686,20.408c-18.384-23.905-43.965-44.649-61.129-37.798c-24.918,9.946-22.657,74.282-10.039,105.893
	c1.89,4.736,4.188,9.15,6.8,13.21c-2.403,9.401-3.675,19.187-3.675,29.238c0,35.612,15.936,67.897,41.78,91.503
	c0.02,0.018,0.039,0.036,0.058,0.053l150.992,150.992C421.333,486.316,512,381.749,512,256z"/>
<path style="fill:#505F69;" d="M196.087,186.893c12.617,31.611,2.646,65.301-22.271,75.246
	c-24.918,9.946-55.346-7.618-67.964-39.229s-14.879-95.948,10.039-105.893S183.468,155.282,196.087,186.893z"/>
<path style="fill:#FFB49B;" d="M172.977,187.47c6.987,17.506,1.465,36.162-12.333,41.67c-13.799,5.508-30.65-4.219-37.637-21.725
	c-6.987-17.506-10.263-58.202,3.536-63.711C140.342,138.198,165.99,169.965,172.977,187.47z"/>
<ellipse style="fill:#505F69;" cx="255.708" cy="265.359" rx="146.729" ry="130.954"/>
<path style="fill:#3F505C;" d="M315.914,186.893c-12.617,31.611-2.646,65.301,22.271,75.246
	c24.918,9.946,55.346-7.618,67.964-39.229c12.617-31.611,14.879-95.948-10.039-105.893
	C371.192,107.072,328.532,155.282,315.914,186.893z"/>
<path style="fill:#F5876E;" d="M339.023,187.47c-6.987,17.506-1.465,36.162,12.333,41.67c13.799,5.508,30.65-4.219,37.637-21.725
	c6.987-17.506,10.263-58.202-3.536-63.711C371.659,138.198,346.01,169.965,339.023,187.47z"/>
<path style="fill:#3F505C;" d="M255.706,134.407V396.31c81.037,0,146.73-58.629,146.73-130.951S336.742,134.407,255.706,134.407z"/>
<path style="fill:#EBEBF0;" d="M274.298,264.649c-3.932-6.522-10.992-10.51-18.606-10.507c-7.615,0.003-14.657,4.002-18.59,10.523
	c-23.964,39.746-59.309,68.195-99.992,77.802c26.685,32.634,69.861,53.843,118.595,53.843s91.911-21.209,118.595-53.843
	C333.611,332.859,298.262,304.403,274.298,264.649z"/>
<path style="fill:#D2D2D7;" d="M374.3,342.467c-42.75-10.095-77.408-40.342-99.992-77.802c-3.93-6.517-10.983-10.502-18.593-10.506
	c-0.004,0-0.007,0-0.011,0v142.15C301.34,396.31,345.808,377.308,374.3,342.467z"/>
<circle style="fill:#FFD23C;" cx="195.204" cy="247.288" r="33.483"/>
<circle style="fill:#373C41;" cx="195.204" cy="247.288" r="20.822"/>
<path style="fill:#FFFFFF;" d="M274.181,264.446c-3.902-6.487-10.92-10.455-18.49-10.452c-7.571,0.003-14.569,3.982-18.472,10.469
	c-16.683,27.73-38.905,49.971-64.612,64.181c7.143,15.212,22.591,25.749,40.509,25.749c19.925,0,36.8-13.029,42.588-31.031
	c5.789,18.001,22.663,31.031,42.588,31.031c17.917,0,33.367-10.537,40.509-25.749C313.091,314.432,290.866,292.184,274.181,264.446z
	"/>
<path style="fill:#EBEBF0;" d="M274.191,264.462c-3.9-6.482-10.911-10.447-18.475-10.45c-0.004,0-0.007,0-0.011,0v69.35
	c5.789,18.001,22.663,31.031,42.588,31.031c17.917,0,33.367-10.537,40.509-25.749C337.417,327.566,301.99,310.654,274.191,264.462z"
	/>
<path style="fill:#FFB49B;" d="M255.706,314.737l-19.024-23.732c-1.2-1.497-1.434-3.548-0.604-5.277
	c0.83-1.729,2.578-2.829,4.496-2.829h30.266c1.918,0,3.665,1.1,4.496,2.829c0.83,1.729,0.594,3.781-0.604,5.277L255.706,314.737z"/>
<path style="fill:#F5876E;" d="M275.334,285.727c-0.83-1.729-2.578-2.828-4.496-2.828h-15.133v31.839l19.024-23.732
	C275.929,289.509,276.164,287.456,275.334,285.727z"/>
<circle style="fill:#FFFFFF;" cx="200.784" cy="242.881" r="5.58"/>
<circle style="fill:#FFD23C;" cx="315.038" cy="248.461" r="33.483"/>
<circle style="fill:#373C41;" cx="315.038" cy="248.461" r="20.822"/>
<circle style="fill:#FFFFFF;" cx="320.618" cy="244.055" r="5.58"/>
<g>
</g>
<g>
</g>
<g>
</g>
<g>
</g>
<g>
</g>
<g>
</g>
<g>
</g>
<g>
</g>
<g>
</g>
<g>
</g>
<g>
</g>
<g>
</g>
<g>
</g>
<g>
</g>
<g>
</g>
</svg>
